<svg width="15" height="14" viewBox="0 0 15 14" fill="none" xmlns="http://www.w3.org/2000/svg">
<path fill-rule="evenodd" clip-rule="evenodd" d="M1.5 12.3964V5.89641H2.5V12.3964C2.5 12.6726 2.72386 12.8964 3 12.8964H12C12.2761 12.8964 12.5 12.6726 12.5 12.3964V5.89641H13.5V12.3964C13.5 13.2248 12.8284 13.8964 12 13.8964H3C2.17157 13.8964 1.5 13.2248 1.5 12.3964Z" fill="#052C65"/>
<path fill-rule="evenodd" clip-rule="evenodd" d="M12.5 1.39641V4.89641L10.5 2.89641V1.39641C10.5 1.12027 10.7239 0.896409 11 0.896409H12C12.2761 0.896409 12.5 1.12027 12.5 1.39641Z" fill="#052C65"/>
<path fill-rule="evenodd" clip-rule="evenodd" d="M6.79289 0.396409C7.18342 0.00588346 7.81658 0.00588554 8.20711 0.396409L14.8536 7.04286C15.0488 7.23812 15.0488 7.5547 14.8536 7.74996C14.6583 7.94522 14.3417 7.94522 14.1464 7.74996L7.5 1.10352L0.853553 7.74996C0.658291 7.94522 0.341709 7.94522 0.146447 7.74996C-0.0488155 7.5547 -0.0488155 7.23812 0.146447 7.04286L6.79289 0.396409Z" fill="#052C65"/>
</svg>
